# xmcd CD database file
#
# Track frame offsets:
#	150
#	47905
#	97536
#	145763
#
# Disc length: 2794 seconds
#
# Revision: 0
# Processed by: cddbd v1.5.2PL0 Copyright (c) Steve Scherf et al.
# Submitted via: CDex 1.70beta2
#
DISCID=280ae804
DTITLE=Miles Davis - Miles Davis At Fillmore, NYC, 1970/06/17
DYEAR=1970
DGENRE=Jazz
TTITLE0=Directions
TTITLE1=The Mask
TTITLE2=It's About That Time
TTITLE3=Bitches Brew - Bye Bye (theme)
EXTD=YEAR: 1970
EXTT0=
EXTT1=
EXTT2=
EXTT3=
PLAYORDER=
